<?xml version="1.0" standalone="no"?>
<!DOCTYPE svg PUBLIC "-//W3C//DTD SVG 20010904//EN"
 "http://www.w3.org/TR/2001/REC-SVG-20010904/DTD/svg10.dtd">
<svg version="1.0" xmlns="http://www.w3.org/2000/svg"
 width="512.000000pt" height="512.000000pt" viewBox="0 0 512.000000 512.000000"
 preserveAspectRatio="xMidYMid meet">
<metadata>
Created by potrace 1.16, written by Peter Selinger 2001-2019
</metadata>
<g transform="translate(0.000000,512.000000) scale(0.100000,-0.100000)"
fill="#000000" stroke="none">
<path d="M0 2560 l0 -2560 2560 0 2560 0 0 2560 0 2560 -2560 0 -2560 0 0
-2560z m2580 981 l0 -578 75 -7 c406 -37 747 -326 856 -726 33 -119 33 -366 1
-483 -77 -280 -260 -503 -516 -627 -198 -96 -180 -94 -828 -98 l-568 -3 0
1551 0 1550 490 0 490 0 0 -579z"/>
<path d="M1720 3230 c0 -423 2 -770 4 -770 2 0 23 30 47 68 52 80 173 203 250
254 120 79 269 140 386 156 l48 7 3 528 2 527 -370 0 -370 0 0 -770z"/>
<path d="M2461 2829 c-341 -44 -622 -294 -712 -634 -30 -111 -29 -297 0 -410
81 -305 310 -535 616 -616 111 -30 297 -29 410 0 305 81 535 311 616 616 16
61 21 110 21 205 0 145 -20 239 -77 359 -128 270 -373 444 -675 481 -94 11
-107 11 -199 -1z"/>
<path d="M1720 1327 l0 -187 186 0 186 0 -63 42 c-84 55 -216 187 -268 267
l-41 64 0 -186z"/>
</g>
</svg>
