<?xml version="1.0" standalone="no"?>
<!DOCTYPE svg PUBLIC "-//W3C//DTD SVG 20010904//EN"
 "http://www.w3.org/TR/2001/REC-SVG-20010904/DTD/svg10.dtd">
<svg version="1.0" xmlns="http://www.w3.org/2000/svg"
 width="384.000000pt" height="384.000000pt" viewBox="0 0 384.000000 384.000000"
 preserveAspectRatio="xMidYMid meet">
<metadata>
Created by potrace 1.16, written by Peter Selinger 2001-2019
</metadata>
<g transform="translate(0.000000,384.000000) scale(0.100000,-0.100000)"
fill="#000000" stroke="none">
<path d="M0 1920 l0 -1920 1920 0 1920 0 0 1920 0 1920 -1920 0 -1920 0 0
-1920z m2473 1749 c21 -6 48 -20 59 -31 19 -19 20 -29 15 -142 -11 -223 -39
-276 -150 -276 -87 0 -105 7 -126 49 -41 80 -55 342 -20 376 32 31 151 44 222
24z m-84 -479 c81 0 92 2 119 25 17 14 33 25 36 25 3 0 6 -29 6 -65 0 -62 -1
-65 -32 -81 -80 -42 -308 41 -308 112 0 53 10 56 51 19 39 -35 40 -35 128 -35z
m-188 -55 c61 -31 213 -75 260 -75 21 0 60 13 94 31 71 38 108 34 164 -17 21
-19 47 -34 58 -34 12 0 26 -7 33 -15 7 -8 25 -15 41 -15 37 0 46 -16 11 -23
-20 -4 -53 7 -121 40 l-93 47 -57 -13 c-104 -24 -152 -24 -239 -2 -69 18 -99
21 -185 15 -90 -5 -108 -4 -155 15 -29 12 -64 21 -77 21 -28 0 -33 15 -9 24
29 11 61 6 87 -14 32 -25 41 -25 27 0 -9 16 -6 22 17 34 35 19 82 12 144 -19z
m-210 -62 c32 -12 81 -17 179 -18 90 -2 157 -8 200 -20 69 -18 122 -17 221 6
54 12 58 11 120 -18 119 -55 167 -121 172 -232 2 -63 -11 -69 -90 -38 -37 15
-90 32 -117 38 -64 16 -227 5 -334 -21 -46 -11 -97 -20 -113 -20 -35 0 -95 29
-160 76 l-47 34 -14 -22 c-8 -13 -18 -41 -22 -62 -11 -58 -50 -128 -91 -164
-43 -38 -87 -42 -139 -11 -47 27 -45 19 4 -32 23 -24 62 -87 95 -154 67 -138
125 -215 161 -215 56 0 164 -71 164 -108 0 -32 -108 -132 -142 -132 -10 0 -43
24 -73 54 -46 45 -55 59 -55 89 0 42 -20 58 -180 147 -159 89 -215 133 -244
192 -46 94 -44 123 10 197 13 19 34 66 46 104 11 38 31 81 43 95 29 34 79 35
124 2 31 -22 33 -22 22 -2 -6 11 -24 31 -41 44 -27 22 -29 26 -20 57 17 62 79
113 161 135 72 19 108 19 160 -1z m-367 -100 c-7 -16 -14 -36 -14 -45 0 -10
-17 -24 -43 -36 -50 -22 -78 -61 -101 -142 -9 -30 -20 -60 -24 -66 -4 -6 -79
-44 -167 -84 -260 -117 -669 -328 -794 -410 -120 -79 -254 -182 -330 -254
l-43 -41 7 35 c36 178 156 372 311 503 178 151 481 316 794 435 99 37 386 130
407 131 8 1 8 -7 -3 -26z m1299 -27 c42 -17 83 -66 99 -117 9 -32 9 -53 0 -99
-12 -54 -11 -62 10 -102 30 -57 32 -145 4 -162 -10 -6 -31 -22 -45 -34 -21
-19 -22 -22 -6 -16 11 4 36 9 56 12 103 12 111 -143 15 -278 -18 -25 -37 -60
-44 -77 -17 -49 -71 -123 -97 -133 -26 -10 -63 -2 -112 23 -32 17 -43 46 -43
118 0 51 35 79 100 79 29 0 52 6 59 14 12 15 11 19 -36 100 -20 34 -16 93 7
109 19 13 18 15 -25 31 -25 10 -45 21 -45 24 0 4 11 34 25 67 14 34 25 80 25
107 0 42 3 49 30 63 56 29 48 146 -16 231 -19 24 -34 46 -34 49 0 10 41 5 73
-9z m-811 -199 c15 -10 52 -23 81 -31 49 -13 63 -12 148 6 139 30 301 29 394
-3 l70 -24 -1 -65 c0 -49 -7 -77 -26 -115 -36 -71 -57 -146 -64 -235 l-7 -78
-45 -6 c-98 -13 -231 -7 -295 15 -59 20 -181 82 -191 97 -2 4 -7 32 -11 62 -6
54 -6 55 24 73 44 26 38 37 -17 37 -53 0 -96 25 -161 93 l-33 36 21 45 c12 25
25 70 28 101 l6 56 26 -24 c14 -13 38 -31 53 -40z m-172 -232 c19 -20 59 -52
88 -72 29 -20 54 -46 57 -57 19 -91 23 -124 18 -147 -5 -25 -6 -26 -53 -16
-40 8 -53 16 -78 51 -39 54 -57 91 -88 177 -25 68 -25 71 -7 85 25 18 25 19
63 -21z m-531 -80 c23 -65 91 -119 254 -201 183 -92 217 -116 217 -151 0 -14
12 -42 28 -62 15 -20 32 -45 38 -56 6 -11 24 -24 41 -30 28 -9 29 -12 20 -40
-28 -88 -329 -319 -502 -386 -77 -30 -82 -31 -215 -26 -151 4 -208 18 -284 68
-63 42 -110 107 -136 191 l-22 66 43 84 c65 125 177 266 340 431 80 81 151
147 156 147 5 0 15 -16 22 -35z m886 -242 c89 -24 118 -27 256 -28 l157 0 5
-66 c3 -36 12 -92 21 -125 30 -117 48 -284 44 -409 -3 -114 -5 -126 -35 -185
-26 -49 -33 -75 -33 -118 0 -31 -10 -86 -22 -123 l-22 -68 -54 -7 c-61 -7
-223 3 -235 16 -5 4 -1 22 8 39 14 28 46 49 96 64 23 7 8 113 -29 206 l-28 73
17 51 c17 51 63 346 55 354 -7 7 -34 -72 -66 -197 -44 -168 -85 -248 -171
-331 -37 -37 -71 -79 -75 -94 -4 -15 -24 -47 -45 -72 -41 -46 -49 -66 -24 -57
39 15 4 -150 -66 -308 -34 -78 -42 -108 -48 -183 l-6 -90 -47 -3 c-26 -2 -65
2 -88 8 -34 9 -39 14 -35 33 3 12 9 96 15 187 16 264 42 357 129 473 l58 78
-14 62 c-19 79 -12 302 11 402 31 131 45 163 80 185 18 11 54 42 79 69 51 54
52 66 11 111 -16 18 -21 33 -17 53 3 15 8 27 12 27 4 0 52 -12 106 -27z m180
-1168 c39 0 107 4 152 8 l82 8 -9 -32 c-5 -18 -15 -36 -22 -40 -36 -23 -337
-34 -357 -14 -5 6 -13 27 -17 49 l-7 38 54 -8 c30 -5 86 -9 124 -9z m205 -127
c0 -48 -10 -51 -163 -56 -157 -5 -181 1 -190 44 l-5 27 102 -5 c55 -3 128 -2
161 2 98 12 95 12 95 -12z m-17 -243 l2 -160 47 -30 c26 -16 84 -50 129 -75
123 -67 145 -94 116 -134 -13 -17 -19 -18 -133 -3 -65 9 -165 19 -221 23
l-102 6 -7 34 c-3 19 -4 40 -1 48 4 10 -7 15 -43 20 -27 4 -52 11 -55 15 -3 5
1 33 9 63 17 68 6 212 -24 289 -11 30 -20 56 -20 58 0 2 35 1 78 -2 42 -4 104
-3 137 2 33 5 66 8 73 7 11 -1 14 -36 15 -161z m-731 -151 c30 -5 39 -12 47
-37 15 -42 14 -60 -4 -53 -19 7 -20 14 10 -88 14 -47 25 -95 25 -105 0 -30
-51 -45 -135 -38 -104 8 -155 37 -155 89 0 42 14 63 73 109 42 33 47 40 27 37
-21 -2 -25 1 -22 22 1 13 12 35 24 47 22 24 46 27 110 17z"/>
</g>
</svg>
